# Blender 4.2.0
# www.blender.org
mtllib asphalt_1.mtl
o Cube
v 0.500000 0.010000 -0.500000
v 0.500000 -0.010000 -0.500000
v 0.500000 0.010000 0.500000
v 0.500000 -0.010000 0.500000
v -0.500000 0.010000 -0.500000
v -0.500000 -0.010000 -0.500000
v -0.500000 0.010000 0.500000
v -0.500000 -0.010000 0.500000
vn -0.0000 1.0000 -0.0000
vn -0.0000 -0.0000 1.0000
vn -1.0000 -0.0000 -0.0000
vn -0.0000 -1.0000 -0.0000
vn 1.0000 -0.0000 -0.0000
vn -0.0000 -0.0000 -1.0000
vt 0.999900 0.999900
vt 0.000100 0.999900
vt 0.000100 0.000100
vt 0.999900 0.000100
vt 0.375000 0.750000
vt 0.625000 0.750000
vt 0.625000 1.000000
vt 0.375000 1.000000
vt 0.375000 0.000000
vt 0.625000 0.000000
vt 0.625000 0.250000
vt 0.375000 0.250000
vt 0.125000 0.500000
vt 0.375000 0.500000
vt 0.125000 0.750000
vt 0.625000 0.500000
s 0
usemtl Material.002
f 1/1/1 5/2/1 7/3/1 3/4/1
